<svg width="32" height="32" viewBox="0 0 32 32" fill="none" xmlns="http://www.w3.org/2000/svg">
<path d="M2.89191 24.7985L14.1112 5.86072C14.7313 4.81407 15.0413 4.29075 15.4458 4.11499C15.7986 3.96167 16.2014 3.96167 16.5542 4.11499C16.9587 4.29075 17.2687 4.81407 17.8888 5.86071L29.1081 24.7985C29.7304 25.8489 30.0415 26.3741 29.9955 26.8052C29.9554 27.1812 29.7539 27.5228 29.441 27.7451C29.0823 28 28.4613 28 27.2193 28H4.78071C3.53869 28 2.91768 28 2.55899 27.7451C2.24613 27.5228 2.04456 27.1812 2.00445 26.8052C1.95847 26.3741 2.26961 25.8489 2.89191 24.7985Z" stroke="#7F82A1" stroke-width="2" stroke-linecap="round" stroke-linejoin="round"/>
<path d="M15.9109 11.3384C16.647 11.3384 17.2437 11.9351 17.2437 12.6712V18.0024C17.2437 18.7384 16.647 19.3352 15.9109 19.3352C15.1748 19.3352 14.5781 18.7384 14.5781 18.0024V12.6712C14.5781 11.9351 15.1748 11.3384 15.9109 11.3384Z" fill="#7F82A1"/>
<path d="M14.5781 23.3336C14.5781 22.5975 15.1748 22.0008 15.9109 22.0008H15.9243C16.6603 22.0008 17.257 22.5975 17.257 23.3336C17.257 24.0696 16.6603 24.6664 15.9243 24.6664H15.9109C15.1748 24.6664 14.5781 24.0696 14.5781 23.3336Z" fill="#7F82A1"/>
</svg>
