<svg width="200" height="40" viewBox="0 0 200 40" fill="none" xmlns="http://www.w3.org/2000/svg">
<path d="M26 4H14C8.47715 4 4 8.47715 4 14V26C4 31.5228 8.47715 36 14 36H26C31.5228 36 36 31.5228 36 26V14C36 8.47715 31.5228 4 26 4Z" fill="url(#paint0_linear_41_521)"/>
<path d="M20 29C24.9706 29 29 24.9706 29 20C29 15.0294 24.9706 11 20 11C15.0294 11 11 15.0294 11 20C11 24.9706 15.0294 29 20 29Z" fill="white" fill-opacity="0.12" stroke="white" stroke-width="1.6"/>
<path opacity="0.9" d="M15 17C16.6 15.1 18.6 14.2 21 14.2C22.6 14.2 24.1 14.6 25.6 15.3" stroke="white" stroke-width="1.4" stroke-linecap="round"/>
<path d="M16 21.5L19.2 24.5L24.2 18.3" stroke="white" stroke-width="2" stroke-linecap="round" stroke-linejoin="round"/>
<path d="M48.5682 16.392V14.3636H58.125V16.392H54.5625V26H52.1307V16.392H48.5682ZM58.7472 26V17.2727H61.0938V18.7955H61.1847C61.3438 18.2538 61.6108 17.8447 61.9858 17.5682C62.3608 17.2879 62.7926 17.1477 63.2812 17.1477C63.4025 17.1477 63.5331 17.1553 63.6733 17.1705C63.8134 17.1856 63.9366 17.2064 64.0426 17.233V19.3807C63.929 19.3466 63.7718 19.3163 63.571 19.2898C63.3703 19.2633 63.1866 19.25 63.0199 19.25C62.6638 19.25 62.3456 19.3277 62.0653 19.483C61.7888 19.6345 61.5691 19.8466 61.4062 20.1193C61.2472 20.392 61.1676 20.7064 61.1676 21.0625V26H58.7472ZM70.8906 22.2841V17.2727H73.3111V26H70.9872V24.4148H70.8963C70.6993 24.9261 70.3717 25.3371 69.9134 25.6477C69.4588 25.9583 68.9039 26.1136 68.2486 26.1136C67.6652 26.1136 67.152 25.9811 66.7088 25.7159C66.2656 25.4508 65.919 25.0739 65.669 24.5852C65.4228 24.0966 65.2978 23.5114 65.294 22.8295V17.2727H67.7145V22.3977C67.7183 22.9129 67.8565 23.3201 68.1293 23.6193C68.402 23.9186 68.7675 24.0682 69.2259 24.0682C69.5175 24.0682 69.7902 24.0019 70.044 23.8693C70.2978 23.733 70.5024 23.5322 70.6577 23.267C70.8168 23.0019 70.8944 22.6742 70.8906 22.2841ZM79.8892 17.2727V19.0909H74.6335V17.2727H79.8892ZM75.8267 15.1818H78.2472V23.3182C78.2472 23.5417 78.2813 23.7159 78.3494 23.8409C78.4176 23.9621 78.5123 24.0473 78.6335 24.0966C78.7585 24.1458 78.9025 24.1705 79.0653 24.1705C79.179 24.1705 79.2926 24.161 79.4062 24.142C79.5199 24.1193 79.607 24.1023 79.6676 24.0909L80.0483 25.892C79.9271 25.9299 79.7566 25.9735 79.5369 26.0227C79.3172 26.0758 79.0502 26.108 78.7358 26.1193C78.1525 26.142 77.6411 26.0644 77.2017 25.8864C76.7661 25.7083 76.4271 25.4318 76.1847 25.0568C75.9422 24.6818 75.8229 24.2083 75.8267 23.6364V15.1818ZM84.0739 20.9545V26H81.6534V14.3636H84.0057V18.8125H84.108C84.3049 18.2973 84.6231 17.8939 85.0625 17.6023C85.5019 17.3068 86.053 17.1591 86.7159 17.1591C87.322 17.1591 87.8504 17.2917 88.3011 17.5568C88.7557 17.8182 89.108 18.1951 89.358 18.6875C89.6117 19.1761 89.7367 19.7614 89.733 20.4432V26H87.3125V20.875C87.3163 20.3371 87.1799 19.9186 86.9034 19.6193C86.6307 19.3201 86.2481 19.1705 85.7557 19.1705C85.4261 19.1705 85.1345 19.2405 84.8807 19.3807C84.6307 19.5208 84.4337 19.7254 84.2898 19.9943C84.1496 20.2595 84.0777 20.5795 84.0739 20.9545Z" fill="#111827"/>
<path d="M95.0114 26V14.3636H97.4716V23.9716H102.46V26H95.0114ZM108.021 26.1705C107.124 26.1705 106.351 25.9886 105.703 25.625C105.059 25.2576 104.563 24.7386 104.214 24.0682C103.866 23.3939 103.692 22.5966 103.692 21.6761C103.692 20.7784 103.866 19.9905 104.214 19.3125C104.563 18.6345 105.054 18.1061 105.686 17.7273C106.322 17.3485 107.069 17.1591 107.925 17.1591C108.5 17.1591 109.036 17.2519 109.533 17.4375C110.033 17.6193 110.468 17.8939 110.839 18.2614C111.214 18.6288 111.506 19.0909 111.714 19.6477C111.923 20.2008 112.027 20.8485 112.027 21.5909V22.2557H104.658V20.7557H109.749C109.749 20.4072 109.673 20.0985 109.521 19.8295C109.37 19.5606 109.16 19.3504 108.891 19.1989C108.625 19.0436 108.317 18.9659 107.964 18.9659C107.597 18.9659 107.271 19.0511 106.987 19.2216C106.707 19.3883 106.487 19.6136 106.328 19.8977C106.169 20.178 106.088 20.4905 106.084 20.8352V22.2614C106.084 22.6932 106.163 23.0663 106.322 23.3807C106.485 23.6951 106.714 23.9375 107.01 24.108C107.305 24.2784 107.656 24.3636 108.061 24.3636C108.33 24.3636 108.576 24.3258 108.8 24.25C109.023 24.1742 109.214 24.0606 109.374 23.9091C109.533 23.7576 109.654 23.572 109.737 23.3523L111.976 23.5C111.862 24.0379 111.629 24.5076 111.277 24.9091C110.929 25.3068 110.478 25.6174 109.925 25.8409C109.375 26.0606 108.741 26.1705 108.021 26.1705ZM116.027 20.9545V26H113.607V17.2727H115.913V18.8125H116.016C116.209 18.3049 116.533 17.9034 116.987 17.608C117.442 17.3087 117.993 17.1591 118.641 17.1591C119.247 17.1591 119.775 17.2917 120.226 17.5568C120.677 17.822 121.027 18.2008 121.277 18.6932C121.527 19.1818 121.652 19.7652 121.652 20.4432V26H119.232V20.875C119.235 20.3409 119.099 19.9242 118.822 19.625C118.546 19.322 118.165 19.1705 117.68 19.1705C117.355 19.1705 117.067 19.2405 116.817 19.3807C116.571 19.5208 116.377 19.7254 116.237 19.9943C116.101 20.2595 116.031 20.5795 116.027 20.9545ZM130.821 19.7614L128.605 19.8977C128.567 19.7083 128.486 19.5379 128.361 19.3864C128.236 19.2311 128.071 19.108 127.866 19.017C127.666 18.9223 127.425 18.875 127.145 18.875C126.77 18.875 126.454 18.9545 126.196 19.1136C125.938 19.2689 125.81 19.4773 125.81 19.7386C125.81 19.947 125.893 20.1231 126.06 20.267C126.226 20.411 126.512 20.5265 126.918 20.6136L128.497 20.9318C129.346 21.1061 129.978 21.3864 130.395 21.7727C130.812 22.1591 131.02 22.6667 131.02 23.2955C131.02 23.8674 130.851 24.3693 130.514 24.8011C130.181 25.233 129.723 25.5701 129.139 25.8125C128.56 26.0511 127.891 26.1705 127.134 26.1705C125.978 26.1705 125.058 25.9299 124.372 25.4489C123.69 24.964 123.291 24.3049 123.173 23.4716L125.554 23.3466C125.626 23.6989 125.8 23.9678 126.077 24.1534C126.353 24.3352 126.707 24.4261 127.139 24.4261C127.563 24.4261 127.904 24.3447 128.162 24.1818C128.423 24.0152 128.556 23.8011 128.56 23.5398C128.556 23.3201 128.463 23.1402 128.281 23C128.099 22.8561 127.819 22.7462 127.44 22.6705L125.929 22.3693C125.077 22.1989 124.442 21.9034 124.026 21.483C123.613 21.0625 123.406 20.5265 123.406 19.875C123.406 19.3144 123.558 18.8314 123.861 18.4261C124.168 18.0208 124.598 17.7083 125.151 17.4886C125.707 17.2689 126.359 17.1591 127.105 17.1591C128.207 17.1591 129.075 17.392 129.707 17.858C130.344 18.3239 130.715 18.9583 130.821 19.7614Z" fill="#6553FF"/>
<path opacity="0.9" d="M138.5 30H97.5C96.6716 30 96 30.6716 96 31.5C96 32.3284 96.6716 33 97.5 33H138.5C139.328 33 140 32.3284 140 31.5C140 30.6716 139.328 30 138.5 30Z" fill="url(#paint1_linear_41_521)"/>
<defs>
<linearGradient id="paint0_linear_41_521" x1="4" y1="4" x2="36" y2="36" gradientUnits="userSpaceOnUse">
<stop stop-color="#E0F2FE"/>
<stop offset="0.5" stop-color="#E9D5FF"/>
<stop offset="1" stop-color="#C4B5FD"/>
</linearGradient>
<linearGradient id="paint1_linear_41_521" x1="118" y1="39" x2="168" y2="39" gradientUnits="userSpaceOnUse">
<stop stop-color="#38BDF8"/>
<stop offset="1" stop-color="#A855F7"/>
</linearGradient>
</defs>
</svg>
