<svg width="90" height="90" viewBox="0 0 90 90" fill="none" xmlns="http://www.w3.org/2000/svg">
<path d="M45 77.5C62.9493 77.5 77.5 62.9493 77.5 45C77.5 27.0507 62.9493 12.5 45 12.5C27.0507 12.5 12.5 27.0507 12.5 45C12.5 62.9493 27.0507 77.5 45 77.5Z" stroke="#A66908" stroke-width="6" stroke-linecap="round" stroke-linejoin="round"/>
<path d="M37.5 35C37.5 29.5 42 26.25 47.5 26.25C52.5 26.25 56.25 29.5 56.25 33.75C56.25 37.75 53.75 39.875 50.5 41.5C47.875 42.875 46.25 44.125 46.25 47.5" stroke="#A66908" stroke-width="6" stroke-linecap="round" stroke-linejoin="round"/>
<path d="M45 67.25C47.6234 67.25 49.75 65.1234 49.75 62.5C49.75 59.8766 47.6234 57.75 45 57.75C42.3766 57.75 40.25 59.8766 40.25 62.5C40.25 65.1234 42.3766 67.25 45 67.25Z" fill="#A66908"/>
</svg>
