<svg width="100" height="100" viewBox="0 0 100 100" fill="none" xmlns="http://www.w3.org/2000/svg">
<path d="M100 50C100 77.6142 77.6142 100 50 100C22.3858 100 0 77.6142 0 50C0 22.3858 22.3858 0 50 0C77.6142 0 100 22.3858 100 50ZM14.7508 50C14.7508 69.4676 30.5324 85.2492 50 85.2492C69.4676 85.2492 85.2492 69.4676 85.2492 50C85.2492 30.5324 69.4676 14.7508 50 14.7508C30.5324 14.7508 14.7508 30.5324 14.7508 50Z" fill="#ACC0FF" fill-opacity="0.4"/>
<path d="M92.625 50C96.6981 50 100.056 46.6805 99.4571 42.6517C98.8571 38.6135 97.7634 34.6547 96.194 30.8658C93.6812 24.7995 89.9983 19.2876 85.3553 14.6447C80.7124 10.0017 75.2004 6.31876 69.1342 3.80602C65.3453 2.23662 61.3865 1.14293 57.3483 0.542926C53.3195 -0.055687 50 3.3019 50 7.375C50 11.4481 53.3371 14.6727 57.3214 15.5187C59.4267 15.9657 61.4916 16.6057 63.4896 17.4332C67.7663 19.2047 71.6522 21.8012 74.9255 25.0745C78.1988 28.3477 80.7953 32.2337 82.5667 36.5104C83.3943 38.5084 84.0343 40.5733 84.4813 42.6786C85.3273 46.6629 88.5519 50 92.625 50Z" fill="#6553FF"/>
</svg>
